STARTFONT 2.1
FONT -Bitstream-Terminal-Bold-R-Double Wide--18-140-100-100-C-220-DEC-DECtech
SIZE 14 100 100
FONTBOUNDINGBOX 22 20 0 -5

STARTPROPERTIES 24
FOUNDRY "Bitstream"
FAMILY_NAME "Terminal"
WEIGHT_NAME "Bold"
SLANT "R"
SETWIDTH_NAME "Double Wide"
ADD_STYLE_NAME ""
PIXEL_SIZE 18
POINT_SIZE 140
RESOLUTION_X 100
RESOLUTION_Y 100
SPACING "C"
AVERAGE_WIDTH 220
CHARSET_REGISTRY "DEC"
CHARSET_ENCODING "DECtech"
CAP_HEIGHT 11
COPYRIGHT "Copyright (c) 1991 Digital Equipment Corporation. All Rights Reserved."
_DEC_PRODUCTINFO "DECterm Fonts V2.2, 11-Nov-1991"
FULL_NAME "Terminal Bold Double Wide"
WEIGHT 10
X_HEIGHT -3
QUAD_WIDTH 22
DEFAULT_CHAR 159
FONT_DESCENT 5
FONT_ASCENT 15
ENDPROPERTIES

CHARS 182

STARTCHAR space
ENCODING 32
SWIDTH 1131 0
DWIDTH 22 0
BBX 22 20 0 -5
BITMAP
000000
000000
000000
000000
000000
000000
000000
000000
000000
000000
000000
000000
000000
000000
000000
000000
000000
000000
000000
000000
ENDCHAR

STARTCHAR exclam
ENCODING 33
SWIDTH 1131 0
DWIDTH 22 0
BBX 22 20 0 -5
BITMAP
000000
000000
000000
000000
00FC00
00FC00
00FC00
00FC00
00FC00
00FC00
00FC00
000000
00FC00
03FF00
00FC00
000000
000000
000000
000000
000000
ENDCHAR

STARTCHAR quotedbl
ENCODING 34
SWIDTH 1131 0
DWIDTH 22 0
BBX 22 20 0 -5
BITMAP
000000
000000
078780
078780
078780
078780
078780
078780
000000
000000
000000
000000
000000
000000
000000
000000
000000
000000
000000
000000
ENDCHAR

STARTCHAR numbersign
ENCODING 35
SWIDTH 1131 0
DWIDTH 22 0
BBX 22 20 0 -5
BITMAP
000000
000000
000000
000000
1F87E0
1F87E0
1F87E0
1F87E0
FFFFFC
FFFFFC
1F87E0
1F87E0
FFFFFC
FFFFFC
1F87E0
1F87E0
1F87E0
1F87E0
000000
000000
ENDCHAR

STARTCHAR dollar
ENCODING 36
SWIDTH 1131 0
DWIDTH 22 0
BBX 22 20 0 -5
BITMAP
000000
000000
003C00
003C00
07FCF0
1FFFF0
3F03F0
3F00F0
1FF000
0FFF00
003FE0
3C03F0
3F03F0
3FFFF0
3CFFC0
00F000
00F000
00F000
000000
000000
ENDCHAR

STARTCHAR percent
ENCODING 37
SWIDTH 1131 0
DWIDTH 22 0
BBX 22 20 0 -5
BITMAP
000000
000000
000000
000000
1FE000
7FF800
787800
7FF8E0
1FE780
003C00
01E000
0F1FE0
387FF8
007878
007FF8
001FE0
000000
000000
000000
000000
ENDCHAR

STARTCHAR ampersand
ENCODING 38
SWIDTH 1131 0
DWIDTH 22 0
BBX 22 20 0 -5
BITMAP
000000
000000
000000
000000
03FCC0
07FFC0
0FC3C0
07C000
03E0F0
0FF8F0
1F7CC0
3F1FC0
3F0FC0
1FFFF0
0FFCF0
000000
000000
000000
000000
000000
ENDCHAR

STARTCHAR quoteright
ENCODING 39
SWIDTH 1131 0
DWIDTH 22 0
BBX 22 20 0 -5
BITMAP
000000
000000
00FF00
00FC00
00F000
03F000
03C000
000000
000000
000000
000000
000000
000000
000000
000000
000000
000000
000000
000000
000000
ENDCHAR

STARTCHAR parenleft
ENCODING 40
SWIDTH 1131 0
DWIDTH 22 0
BBX 22 20 0 -5
BITMAP
000000
000000
000F00
003C00
00F800
01F000
03F000
03E000
07E000
07E000
07E000
07E000
03E000
03F000
01F000
00F800
003C00
000F00
000000
000000
ENDCHAR

STARTCHAR parenright
ENCODING 41
SWIDTH 1131 0
DWIDTH 22 0
BBX 22 20 0 -5
BITMAP
000000
000000
078000
01E000
00F800
007C00
007E00
003E00
003F00
003F00
003F00
003F00
003E00
007E00
007C00
00F800
01E000
078000
000000
000000
ENDCHAR

STARTCHAR asterisk
ENCODING 42
SWIDTH 1131 0
DWIDTH 22 0
BBX 22 20 0 -5
BITMAP
000000
000000
000000
000000
000000
000000
00FC00
00FC00
3CFCF0
3FFFF0
03FF00
0FCFC0
0F03C0
000000
000000
000000
000000
000000
000000
000000
ENDCHAR

STARTCHAR plus
ENCODING 43
SWIDTH 1131 0
DWIDTH 22 0
BBX 22 20 0 -5
BITMAP
000000
000000
000000
000000
000000
00FC00
00FC00
00FC00
00FC00
3FFFF0
3FFFF0
00FC00
00FC00
00FC00
00FC00
000000
000000
000000
000000
000000
ENDCHAR

STARTCHAR comma
ENCODING 44
SWIDTH 1131 0
DWIDTH 22 0
BBX 22 20 0 -5
BITMAP
000000
000000
000000
000000
000000
000000
000000
000000
000000
000000
000000
000000
00FF00
00FC00
00FC00
03F000
03F000
03C000
000000
000000
ENDCHAR

STARTCHAR minus
ENCODING 45
SWIDTH 1131 0
DWIDTH 22 0
BBX 22 20 0 -5
BITMAP
000000
000000
000000
000000
000000
000000
000000
000000
000000
1FFFE0
1FFFE0
000000
000000
000000
000000
000000
000000
000000
000000
000000
ENDCHAR

STARTCHAR period
ENCODING 46
SWIDTH 1131 0
DWIDTH 22 0
BBX 22 20 0 -5
BITMAP
000000
000000
000000
000000
000000
000000
000000
000000
000000
000000
000000
007800
01FE00
01FE00
007800
000000
000000
000000
000000
000000
ENDCHAR

STARTCHAR slash
ENCODING 47
SWIDTH 1131 0
DWIDTH 22 0
BBX 22 20 0 -5
BITMAP
000000
000000
000000
0001F0
0003E0
0007C0
000F80
001F00
003E00
007C00
00F800
01F000
03E000
07C000
0F8000
1F0000
3E0000
000000
000000
000000
ENDCHAR

STARTCHAR zero
ENCODING 48
SWIDTH 1131 0
DWIDTH 22 0
BBX 22 20 0 -5
BITMAP
000000
000000
000000
000000
00F800
07FF00
1F07C0
3E03E0
7E03F0
7E03F0
7E03F0
3E03E0
1F07C0
07FF00
00F800
000000
000000
000000
000000
000000
ENDCHAR

STARTCHAR one
ENCODING 49
SWIDTH 1131 0
DWIDTH 22 0
BBX 22 20 0 -5
BITMAP
000000
000000
000000
000000
00FC00
07FC00
1FFC00
1CFC00
00FC00
00FC00
00FC00
00FC00
00FC00
1FFFE0
1FFFE0
000000
000000
000000
000000
000000
ENDCHAR

STARTCHAR two
ENCODING 50
SWIDTH 1131 0
DWIDTH 22 0
BBX 22 20 0 -5
BITMAP
000000
000000
000000
000000
07FF00
3FFFC0
3C07E0
3C07E0
000FC0
003F00
00FC00
03E000
0F81E0
3FFFE0
3FFFE0
000000
000000
000000
000000
000000
ENDCHAR

STARTCHAR three
ENCODING 51
SWIDTH 1131 0
DWIDTH 22 0
BBX 22 20 0 -5
BITMAP
000000
000000
000000
000000
07FF00
3FFFC0
3807E0
0007C0
00FF00
00FFC0
0007E0
0007E0
3C07E0
3FFFC0
0FFF00
000000
000000
000000
000000
000000
ENDCHAR

STARTCHAR four
ENCODING 52
SWIDTH 1131 0
DWIDTH 22 0
BBX 22 20 0 -5
BITMAP
000000
000000
000000
000000
007F80
00FF80
01DF80
039F80
071F80
0E1F80
1FFFE0
1FFFE0
001F80
001F80
001F80
000000
000000
000000
000000
000000
ENDCHAR

STARTCHAR five
ENCODING 53
SWIDTH 1131 0
DWIDTH 22 0
BBX 22 20 0 -5
BITMAP
000000
000000
000000
000000
3FFFE0
3FFFE0
3F0000
3F0000
3FFF80
3FFFE0
3807E0
0007E0
3C07E0
3FFFE0
0FFF80
000000
000000
000000
000000
000000
ENDCHAR

STARTCHAR six
ENCODING 54
SWIDTH 1131 0
DWIDTH 22 0
BBX 22 20 0 -5
BITMAP
000000
000000
000000
000000
01FFC0
07FFC0
0FC000
1F0000
1F3F00
3FFFC0
3F87E0
3F03E0
3F87E0
1FFFC0
07FF00
000000
000000
000000
000000
000000
ENDCHAR

STARTCHAR seven
ENCODING 55
SWIDTH 1131 0
DWIDTH 22 0
BBX 22 20 0 -5
BITMAP
000000
000000
000000
000000
3FFFE0
3FFFE0
3C07E0
000FC0
001F80
003F00
007E00
00FC00
01F800
03F000
07E000
000000
000000
000000
000000
000000
ENDCHAR

STARTCHAR eight
ENCODING 56
SWIDTH 1131 0
DWIDTH 22 0
BBX 22 20 0 -5
BITMAP
000000
000000
000000
000000
07FF00
1FFFC0
1F07C0
1F07C0
0FFF80
1FFFC0
3F07E0
3F07E0
3F07E0
1FFFC0
07FF00
000000
000000
000000
000000
000000
ENDCHAR

STARTCHAR nine
ENCODING 57
SWIDTH 1131 0
DWIDTH 22 0
BBX 22 20 0 -5
BITMAP
000000
000000
000000
000000
07FF00
1FFFC0
3F0FE0
3E07E0
3F0FE0
1FFFE0
07E7C0
0007C0
001F80
1FFF00
1FFC00
000000
000000
000000
000000
000000
ENDCHAR

STARTCHAR colon
ENCODING 58
SWIDTH 1131 0
DWIDTH 22 0
BBX 22 20 0 -5
BITMAP
000000
000000
000000
000000
000000
000000
007800
01FE00
01FE00
007800
000000
007800
01FE00
01FE00
007800
000000
000000
000000
000000
000000
ENDCHAR

STARTCHAR semicolon
ENCODING 59
SWIDTH 1131 0
DWIDTH 22 0
BBX 22 20 0 -5
BITMAP
000000
000000
000000
000000
000000
000000
003C00
00FF00
00FF00
003C00
000000
000000
00FF00
00FC00
00FC00
03F000
03F000
03C000
000000
000000
ENDCHAR

STARTCHAR less
ENCODING 60
SWIDTH 1131 0
DWIDTH 22 0
BBX 22 20 0 -5
BITMAP
000000
000000
000000
000000
000000
0000F0
000FF0
00FFC0
0FFC00
3FC000
0FFC00
00FFC0
000FF0
0000F0
000000
000000
000000
000000
000000
000000
ENDCHAR

STARTCHAR equal
ENCODING 61
SWIDTH 1131 0
DWIDTH 22 0
BBX 22 20 0 -5
BITMAP
000000
000000
000000
000000
000000
000000
000000
3FFFF0
3FFFF0
000000
000000
3FFFF0
3FFFF0
000000
000000
000000
000000
000000
000000
000000
ENDCHAR

STARTCHAR greater
ENCODING 62
SWIDTH 1131 0
DWIDTH 22 0
BBX 22 20 0 -5
BITMAP
000000
000000
000000
000000
000000
3C0000
3FC000
0FFC00
00FFC0
000FF0
00FFC0
0FFC00
3FC000
3C0000
000000
000000
000000
000000
000000
000000
ENDCHAR

STARTCHAR question
ENCODING 63
SWIDTH 1131 0
DWIDTH 22 0
BBX 22 20 0 -5
BITMAP
000000
000000
000000
000000
07FF80
1FFFE0
1F87E0
0007E0
007F80
01FE00
01F800
000000
01F800
07FE00
01F800
000000
000000
000000
000000
000000
ENDCHAR

STARTCHAR at
ENCODING 64
SWIDTH 1131 0
DWIDTH 22 0
BBX 22 20 0 -5
BITMAP
000000
000000
000000
07FF00
1FFFC0
3E03E0
7C01E0
787FE0
79FFE0
79E1E0
79E1E0
79FFF8
787E78
7C0000
3E0000
1FFF80
07FF80
000000
000000
000000
ENDCHAR

STARTCHAR A
ENCODING 65
SWIDTH 1131 0
DWIDTH 22 0
BBX 22 20 0 -5
BITMAP
000000
000000
000000
000000
01FE00
01FE00
03FF00
03CF00
07CF80
078780
0FFFC0
1FFFE0
1E01E0
7F87F8
7F87F8
000000
000000
000000
000000
000000
ENDCHAR

STARTCHAR B
ENCODING 66
SWIDTH 1131 0
DWIDTH 22 0
BBX 22 20 0 -5
BITMAP
000000
000000
000000
000000
7FFF80
7FFFE0
1F87E0
1F87E0
1FFF80
1FFFE0
1F81F8
1F81F8
1F81F8
7FFFF0
7FFFC0
000000
000000
000000
000000
000000
ENDCHAR

STARTCHAR C
ENCODING 67
SWIDTH 1131 0
DWIDTH 22 0
BBX 22 20 0 -5
BITMAP
000000
000000
000000
000000
03FE78
1FFFF8
3F01F8
7E0078
7E0000
7E0000
7E0000
7E0000
3F0078
1FFFF8
03FF80
000000
000000
000000
000000
000000
ENDCHAR

STARTCHAR D
ENCODING 68
SWIDTH 1131 0
DWIDTH 22 0
BBX 22 20 0 -5
BITMAP
000000
000000
000000
000000
7FFF80
7FFFE0
1F83F0
1F81F8
1F81F8
1F81F8
1F81F8
1F81F8
1F83F0
7FFFE0
7FFF80
000000
000000
000000
000000
000000
ENDCHAR

STARTCHAR E
ENCODING 69
SWIDTH 1131 0
DWIDTH 22 0
BBX 22 20 0 -5
BITMAP
000000
000000
000000
000000
7FFFF8
7FFFF8
1F8078
1F9E78
1FFE00
1FFE00
1F9E00
1F8078
1F8078
7FFFF8
7FFFF8
000000
000000
000000
000000
000000
ENDCHAR

STARTCHAR F
ENCODING 70
SWIDTH 1131 0
DWIDTH 22 0
BBX 22 20 0 -5
BITMAP
000000
000000
000000
000000
7FFFF8
7FFFF8
1F8078
1F9E78
1FFE00
1FFE00
1F9E00
1F8000
1F8000
7FE000
7FE000
000000
000000
000000
000000
000000
ENDCHAR

STARTCHAR G
ENCODING 71
SWIDTH 1131 0
DWIDTH 22 0
BBX 22 20 0 -5
BITMAP
000000
000000
000000
000000
03FE78
1FFFF8
3F01F8
7E0078
7E0000
7E1FF8
7E1FF8
7E01F8
3F01F8
1FFFF8
03FFC0
000000
000000
000000
000000
000000
ENDCHAR

STARTCHAR H
ENCODING 72
SWIDTH 1131 0
DWIDTH 22 0
BBX 22 20 0 -5
BITMAP
000000
000000
000000
000000
7F87F8
7F87F8
1F87E0
1F87E0
1FFFE0
1FFFE0
1F87E0
1F87E0
1F87E0
7F87F8
7F87F8
000000
000000
000000
000000
000000
ENDCHAR

STARTCHAR I
ENCODING 73
SWIDTH 1131 0
DWIDTH 22 0
BBX 22 20 0 -5
BITMAP
000000
000000
000000
000000
3FFFF0
3FFFF0
00FC00
00FC00
00FC00
00FC00
00FC00
00FC00
00FC00
3FFFF0
3FFFF0
000000
000000
000000
000000
000000
ENDCHAR

STARTCHAR J
ENCODING 74
SWIDTH 1131 0
DWIDTH 22 0
BBX 22 20 0 -5
BITMAP
000000
000000
000000
000000
01FFF8
01FFF8
001F80
001F80
001F80
001F80
781F80
781F80
7C1F80
7FFF00
1FFE00
000000
000000
000000
000000
000000
ENDCHAR

STARTCHAR K
ENCODING 75
SWIDTH 1131 0
DWIDTH 22 0
BBX 22 20 0 -5
BITMAP
000000
000000
000000
000000
7F87F8
7F87F8
1F8F80
1F9E00
1FBC00
1FFE00
1FFE00
1F8F00
1F8F80
7F87F8
7F87F8
000000
000000
000000
000000
000000
ENDCHAR

STARTCHAR L
ENCODING 76
SWIDTH 1131 0
DWIDTH 22 0
BBX 22 20 0 -5
BITMAP
000000
000000
000000
000000
3FF000
3FF000
0FC000
0FC000
0FC000
0FC000
0FC0F0
0FC0F0
0FC0F0
3FFFF0
3FFFF0
000000
000000
000000
000000
000000
ENDCHAR

STARTCHAR M
ENCODING 77
SWIDTH 1131 0
DWIDTH 22 0
BBX 22 20 0 -5
BITMAP
000000
000000
000000
000000
7E01F8
7F03F8
1F03E0
1F87E0
1FCFE0
1EFDE0
1F7BE0
1F33E0
1F03E0
7F03F8
7F03F8
000000
000000
000000
000000
000000
ENDCHAR

STARTCHAR N
ENCODING 78
SWIDTH 1131 0
DWIDTH 22 0
BBX 22 20 0 -5
BITMAP
000000
000000
000000
000000
7F87F8
7F87F8
1FC7E0
1FE7E0
1FF7E0
1FBFE0
1F9FE0
1F8FE0
1F87E0
7F87E0
7F87E0
000000
000000
000000
000000
000000
ENDCHAR

STARTCHAR O
ENCODING 79
SWIDTH 1131 0
DWIDTH 22 0
BBX 22 20 0 -5
BITMAP
000000
000000
000000
000000
03FF00
1FFFE0
3F03F0
7E01F8
7E01F8
7E01F8
7E01F8
7E01F8
3F03F0
1FFFE0
03FF00
000000
000000
000000
000000
000000
ENDCHAR

STARTCHAR P
ENCODING 80
SWIDTH 1131 0
DWIDTH 22 0
BBX 22 20 0 -5
BITMAP
000000
000000
000000
000000
3FFFC0
3FFFE0
0FC3F0
0FC3F0
0FC3F0
0FFFE0
0FFFC0
0FC000
0FC000
3FF000
3FF000
000000
000000
000000
000000
000000
ENDCHAR

STARTCHAR Q
ENCODING 81
SWIDTH 1131 0
DWIDTH 22 0
BBX 22 20 0 -5
BITMAP
000000
000000
000000
000000
03FF00
1FFFE0
3F03F0
7E01F8
7E01F8
7E01F8
7E01F8
7E01F8
3F03F0
1FFFE0
03FF00
00E000
01E038
07FFF8
079FE0
000000
ENDCHAR

STARTCHAR R
ENCODING 82
SWIDTH 1131 0
DWIDTH 22 0
BBX 22 20 0 -5
BITMAP
000000
000000
000000
000000
7FFFC0
7FFFE0
1F87E0
1F87E0
1FFFC0
1FFF00
1F9F00
1F8F80
1F8780
7F87F0
7F83F0
000000
000000
000000
000000
000000
ENDCHAR

STARTCHAR S
ENCODING 83
SWIDTH 1131 0
DWIDTH 22 0
BBX 22 20 0 -5
BITMAP
000000
000000
000000
000000
03F9E0
0FFFE0
1F83E0
1F81E0
0FF000
07FF80
003FE0
1E07E0
1F07E0
1FFFC0
1E7F00
000000
000000
000000
000000
000000
ENDCHAR

STARTCHAR T
ENCODING 84
SWIDTH 1131 0
DWIDTH 22 0
BBX 22 20 0 -5
BITMAP
000000
000000
000000
000000
7FFFF8
7FFFF8
78FC78
78FC78
78FC78
00FC00
00FC00
00FC00
00FC00
03FF00
03FF00
000000
000000
000000
000000
000000
ENDCHAR

STARTCHAR U
ENCODING 85
SWIDTH 1131 0
DWIDTH 22 0
BBX 22 20 0 -5
BITMAP
000000
000000
000000
000000
7F87F8
7F87F8
1F87E0
1F87E0
1F87E0
1F87E0
1F87E0
1F87E0
1F87E0
0FFFC0
07FF80
000000
000000
000000
000000
000000
ENDCHAR

STARTCHAR V
ENCODING 86
SWIDTH 1131 0
DWIDTH 22 0
BBX 22 20 0 -5
BITMAP
000000
000000
000000
000000
7F03F8
7F03F8
1F03E0
0F87C0
0F87C0
07CF80
07CF80
03FF00
01FE00
01FE00
00FC00
000000
000000
000000
000000
000000
ENDCHAR

STARTCHAR W
ENCODING 87
SWIDTH 1131 0
DWIDTH 22 0
BBX 22 20 0 -5
BITMAP
000000
000000
000000
000000
7F87F8
7F87F8
1E01E0
1E31E0
1E79E0
1E79E0
1EFDE0
0FCFC0
0FCFC0
078780
078780
000000
000000
000000
000000
000000
ENDCHAR

STARTCHAR X
ENCODING 88
SWIDTH 1131 0
DWIDTH 22 0
BBX 22 20 0 -5
BITMAP
000000
000000
000000
000000
7F03F8
7F87F8
0FCFC0
07FF80
03FF00
01FE00
03FF00
07FF80
0FCFC0
7F87F8
7F03F8
000000
000000
000000
000000
000000
ENDCHAR

STARTCHAR Y
ENCODING 89
SWIDTH 1131 0
DWIDTH 22 0
BBX 22 20 0 -5
BITMAP
000000
000000
000000
000000
3F87F0
3F87F0
0FCFC0
07CF80
03FF00
01FE00
00FC00
00FC00
00FC00
03FF00
03FF00
000000
000000
000000
000000
000000
ENDCHAR

STARTCHAR Z
ENCODING 90
SWIDTH 1131 0
DWIDTH 22 0
BBX 22 20 0 -5
BITMAP
000000
000000
000000
000000
1FFF80
1FFF80
1E3F00
1E7E00
00FC00
01F800
03F000
07E3C0
0FC3C0
1FFFC0
1FFFC0
000000
000000
000000
000000
000000
ENDCHAR

STARTCHAR bracketleft
ENCODING 91
SWIDTH 1131 0
DWIDTH 22 0
BBX 22 20 0 -5
BITMAP
000000
000000
03FF00
03FF00
03F000
03F000
03F000
03F000
03F000
03F000
03F000
03F000
03F000
03F000
03F000
03FF00
03FF00
000000
000000
000000
ENDCHAR

STARTCHAR backslash
ENCODING 92
SWIDTH 1131 0
DWIDTH 22 0
BBX 22 20 0 -5
BITMAP
000000
000000
000000
3E0000
1F0000
0F8000
07C000
03E000
01F000
00F800
007C00
003E00
001F00
000F80
0007C0
0003E0
0001F0
000000
000000
000000
ENDCHAR

STARTCHAR bracketright
ENCODING 93
SWIDTH 1131 0
DWIDTH 22 0
BBX 22 20 0 -5
BITMAP
000000
000000
03FF00
03FF00
003F00
003F00
003F00
003F00
003F00
003F00
003F00
003F00
003F00
003F00
003F00
03FF00
03FF00
000000
000000
000000
ENDCHAR

STARTCHAR asciicircum
ENCODING 94
SWIDTH 1131 0
DWIDTH 22 0
BBX 22 20 0 -5
BITMAP
000000
000000
000000
000000
000000
000000
007800
01FE00
07FF80
1E01E0
000000
000000
000000
000000
000000
000000
000000
000000
000000
000000
ENDCHAR

STARTCHAR ldblank
ENCODING 95
SWIDTH 1131 0
DWIDTH 22 0
BBX 22 20 0 -5
BITMAP
000000
000000
000000
000000
000000
000000
000000
000000
000000
000000
000000
000000
000000
000000
000000
000000
000000
000000
000000
000000
ENDCHAR

STARTCHAR diamond
ENCODING 96
SWIDTH 1131 0
DWIDTH 22 0
BBX 22 20 0 -5
BITMAP
000000
000000
000000
000000
003000
00FC00
03FF00
03FF00
0FFFC0
3FFFF0
0FFFC0
03FF00
03FF00
00FC00
003000
000000
000000
000000
000000
000000
ENDCHAR

STARTCHAR checkerboard
ENCODING 97
SWIDTH 1131 0
DWIDTH 22 0
BBX 22 20 0 -5
BITMAP
332664
CCD998
332664
CCD998
332664
CCD998
332664
CCD998
332664
CCD998
332664
CCD998
332664
CCD998
332664
CCD998
332664
CCD998
332664
CCD998
ENDCHAR

STARTCHAR HT
ENCODING 98
SWIDTH 1131 0
DWIDTH 22 0
BBX 22 20 0 -5
BITMAP
000000
000000
000000
787800
787800
7FF800
7FF800
787800
787800
000000
001FF8
001FF8
0003C0
0003C0
0003C0
0003C0
000000
000000
000000
000000
ENDCHAR

STARTCHAR FF
ENCODING 99
SWIDTH 1131 0
DWIDTH 22 0
BBX 22 20 0 -5
BITMAP
000000
000000
000000
7FE000
7FE000
780000
7F8000
7F8000
780000
781FF8
001FF8
001E00
001FE0
001FE0
001E00
001E00
000000
000000
000000
000000
ENDCHAR

STARTCHAR CR
ENCODING 100
SWIDTH 1131 0
DWIDTH 22 0
BBX 22 20 0 -5
BITMAP
000000
000000
000000
1FC000
7FE000
780000
780000
7FE000
1FC000
000000
001FE0
001FF8
001E78
001FE0
001E78
001E78
000000
000000
000000
000000
ENDCHAR

STARTCHAR LF
ENCODING 101
SWIDTH 1131 0
DWIDTH 22 0
BBX 22 20 0 -5
BITMAP
000000
000000
000000
780000
780000
780000
780000
7FC000
7FC000
001FF8
001FF8
001E00
001FE0
001FE0
001E00
001E00
000000
000000
000000
000000
ENDCHAR

STARTCHAR degree
ENCODING 102
SWIDTH 1131 0
DWIDTH 22 0
BBX 22 20 0 -5
BITMAP
000000
000000
000000
000000
01FE00
07FF80
078780
078780
07FF80
01FE00
000000
000000
000000
000000
000000
000000
000000
000000
000000
000000
ENDCHAR

STARTCHAR plusminus
ENCODING 103
SWIDTH 1131 0
DWIDTH 22 0
BBX 22 20 0 -5
BITMAP
000000
000000
000000
000000
00FC00
00FC00
00FC00
3FFFF0
3FFFF0
00FC00
00FC00
00FC00
000000
3FFFF0
3FFFF0
000000
000000
000000
000000
000000
ENDCHAR

STARTCHAR NL
ENCODING 104
SWIDTH 1131 0
DWIDTH 22 0
BBX 22 20 0 -5
BITMAP
000000
000000
000000
787800
7E7800
7F7800
7BF800
79F800
787800
000000
000780
000780
000780
000780
0007F8
0007F8
000000
000000
000000
000000
ENDCHAR

STARTCHAR VT
ENCODING 105
SWIDTH 1131 0
DWIDTH 22 0
BBX 22 20 0 -5
BITMAP
000000
000000
000000
787800
787800
787800
1FE000
1FE000
078000
000000
001FF8
001FF8
0003C0
0003C0
0003C0
0003C0
000000
000000
000000
000000
ENDCHAR

STARTCHAR ldcornsqlr
ENCODING 106
SWIDTH 1131 0
DWIDTH 22 0
BBX 22 20 0 -5
BITMAP
00FC00
00FC00
00FC00
00FC00
00FC00
00FC00
00FC00
00FC00
00FC00
FFFC00
FFFC00
000000
000000
000000
000000
000000
000000
000000
000000
000000
ENDCHAR

STARTCHAR ldcornsqur
ENCODING 107
SWIDTH 1131 0
DWIDTH 22 0
BBX 22 20 0 -5
BITMAP
000000
000000
000000
000000
000000
000000
000000
000000
000000
FFFC00
FFFC00
00FC00
00FC00
00FC00
00FC00
00FC00
00FC00
00FC00
00FC00
00FC00
ENDCHAR

STARTCHAR ldcornsqul
ENCODING 108
SWIDTH 1131 0
DWIDTH 22 0
BBX 22 20 0 -5
BITMAP
000000
000000
000000
000000
000000
000000
000000
000000
000000
00FFFC
00FFFC
00FC00
00FC00
00FC00
00FC00
00FC00
00FC00
00FC00
00FC00
00FC00
ENDCHAR

STARTCHAR ldcornsqll
ENCODING 109
SWIDTH 1131 0
DWIDTH 22 0
BBX 22 20 0 -5
BITMAP
00FC00
00FC00
00FC00
00FC00
00FC00
00FC00
00FC00
00FC00
00FC00
00FFFC
00FFFC
000000
000000
000000
000000
000000
000000
000000
000000
000000
ENDCHAR

STARTCHAR ldcross
ENCODING 110
SWIDTH 1131 0
DWIDTH 22 0
BBX 22 20 0 -5
BITMAP
00FC00
00FC00
00FC00
00FC00
00FC00
00FC00
00FC00
00FC00
00FC00
FFFFFC
FFFFFC
00FC00
00FC00
00FC00
00FC00
00FC00
00FC00
00FC00
00FC00
00FC00
ENDCHAR

STARTCHAR ldscan1
ENCODING 111
SWIDTH 1131 0
DWIDTH 22 0
BBX 22 20 0 -5
BITMAP
000000
000000
FFFFFC
FFFFFC
000000
000000
000000
000000
000000
000000
000000
000000
000000
000000
000000
000000
000000
000000
000000
000000
ENDCHAR

STARTCHAR ldscan3
ENCODING 112
SWIDTH 1131 0
DWIDTH 22 0
BBX 22 20 0 -5
BITMAP
000000
000000
000000
000000
000000
000000
FFFFFC
FFFFFC
000000
000000
000000
000000
000000
000000
000000
000000
000000
000000
000000
000000
ENDCHAR

STARTCHAR ldhorizontal
ENCODING 113
SWIDTH 1131 0
DWIDTH 22 0
BBX 22 20 0 -5
BITMAP
000000
000000
000000
000000
000000
000000
000000
000000
000000
FFFFFC
FFFFFC
000000
000000
000000
000000
000000
000000
000000
000000
000000
ENDCHAR

STARTCHAR ldscan7
ENCODING 114
SWIDTH 1131 0
DWIDTH 22 0
BBX 22 20 0 -5
BITMAP
000000
000000
000000
000000
000000
000000
000000
000000
000000
000000
000000
000000
000000
000000
FFFFFC
FFFFFC
000000
000000
000000
000000
ENDCHAR

STARTCHAR ldscan9
ENCODING 115
SWIDTH 1131 0
DWIDTH 22 0
BBX 22 20 0 -5
BITMAP
000000
000000
000000
000000
000000
000000
000000
000000
000000
000000
000000
000000
000000
000000
000000
000000
000000
000000
FFFFFC
FFFFFC
ENDCHAR

STARTCHAR ldteelft
ENCODING 116
SWIDTH 1131 0
DWIDTH 22 0
BBX 22 20 0 -5
BITMAP
00FC00
00FC00
00FC00
00FC00
00FC00
00FC00
00FC00
00FC00
00FC00
00FFFC
00FFFC
00FC00
00FC00
00FC00
00FC00
00FC00
00FC00
00FC00
00FC00
00FC00
ENDCHAR

STARTCHAR ldteert
ENCODING 117
SWIDTH 1131 0
DWIDTH 22 0
BBX 22 20 0 -5
BITMAP
00FC00
00FC00
00FC00
00FC00
00FC00
00FC00
00FC00
00FC00
00FC00
FFFC00
FFFC00
00FC00
00FC00
00FC00
00FC00
00FC00
00FC00
00FC00
00FC00
00FC00
ENDCHAR

STARTCHAR ldteebt
ENCODING 118
SWIDTH 1131 0
DWIDTH 22 0
BBX 22 20 0 -5
BITMAP
00FC00
00FC00
00FC00
00FC00
00FC00
00FC00
00FC00
00FC00
00FC00
FFFFFC
FFFFFC
000000
000000
000000
000000
000000
000000
000000
000000
000000
ENDCHAR

STARTCHAR ldteetp
ENCODING 119
SWIDTH 1131 0
DWIDTH 22 0
BBX 22 20 0 -5
BITMAP
000000
000000
000000
000000
000000
000000
000000
000000
000000
FFFFFC
FFFFFC
00FC00
00FC00
00FC00
00FC00
00FC00
00FC00
00FC00
00FC00
00FC00
ENDCHAR

STARTCHAR ldvertical
ENCODING 120
SWIDTH 1131 0
DWIDTH 22 0
BBX 22 20 0 -5
BITMAP
00FC00
00FC00
00FC00
00FC00
00FC00
00FC00
00FC00
00FC00
00FC00
00FC00
00FC00
00FC00
00FC00
00FC00
00FC00
00FC00
00FC00
00FC00
00FC00
00FC00
ENDCHAR

STARTCHAR lessequal
ENCODING 121
SWIDTH 1131 0
DWIDTH 22 0
BBX 22 20 0 -5
BITMAP
000000
000000
000000
000000
000000
0001F8
007FF8
1FFE00
7F8000
1FFE00
007FF8
0001F8
000000
7FFFF8
7FFFF8
000000
000000
000000
000000
000000
ENDCHAR

STARTCHAR greaterequal
ENCODING 122
SWIDTH 1131 0
DWIDTH 22 0
BBX 22 20 0 -5
BITMAP
000000
000000
000000
000000
000000
7E0000
7FF800
01FFE0
0007F8
01FFE0
7FF800
7E0000
000000
7FFFF8
7FFFF8
000000
000000
000000
000000
000000
ENDCHAR

STARTCHAR pi
ENCODING 123
SWIDTH 1131 0
DWIDTH 22 0
BBX 22 20 0 -5
BITMAP
000000
000000
000000
000000
000000
000000
FFFFF8
FFFFF8
3E07C0
3E0F80
7C0F80
7C0F00
7C1F00
F81FC0
F81FC0
000000
000000
000000
000000
000000
ENDCHAR

STARTCHAR notequal
ENCODING 124
SWIDTH 1131 0
DWIDTH 22 0
BBX 22 20 0 -5
BITMAP
000000
000000
000000
000000
000000
000380
000700
3FFFF0
3FFFF0
003800
007000
3FFFF0
3FFFF0
038000
070000
000000
000000
000000
000000
000000
ENDCHAR

STARTCHAR sterling
ENCODING 125
SWIDTH 1131 0
DWIDTH 22 0
BBX 22 20 0 -5
BITMAP
000000
000000
000000
000000
01FF80
07FFE0
07E1E0
07E000
7FFF80
7FFF80
01F000
01F000
01F838
1FFFF8
1F8FE0
000000
000000
000000
000000
000000
ENDCHAR

STARTCHAR periodcentered
ENCODING 126
SWIDTH 1131 0
DWIDTH 22 0
BBX 22 20 0 -5
BITMAP
000000
000000
000000
000000
000000
000000
000000
000000
007800
01FE00
01FE00
007800
000000
000000
000000
000000
000000
000000
000000
000000
ENDCHAR

STARTCHAR Error
ENCODING 159
SWIDTH 1131 0
DWIDTH 22 0
BBX 22 20 0 -5
BITMAP
0FFFE0
3FFFF8
7FFFF8
7F87F8
7F87F8
7FC000
3FF000
1FFC00
07FE00
03FE00
01FE00
01FE00
000000
000000
01FE00
01FE00
01FE00
01FE00
01FE00
000000
ENDCHAR

STARTCHAR space
ENCODING 160
SWIDTH 1131 0
DWIDTH 22 0
BBX 22 20 0 -5
BITMAP
000000
000000
000000
000000
000000
000000
000000
000000
000000
000000
000000
000000
000000
000000
000000
000000
000000
000000
000000
000000
ENDCHAR

STARTCHAR ldradicalbt
ENCODING 161
SWIDTH 1131 0
DWIDTH 22 0
BBX 22 20 0 -5
BITMAP
00FC00
00FC00
00FC00
00FC00
18FC00
3CFC00
7EFC00
6FFC00
07FC00
03FC00
01FC00
00FC00
000000
000000
000000
000000
000000
000000
000000
000000
ENDCHAR

STARTCHAR ldradicaltp
ENCODING 162
SWIDTH 1131 0
DWIDTH 22 0
BBX 22 20 0 -5
BITMAP
000000
000000
000000
000000
000000
000000
000000
000000
000000
00FFFC
00FFFC
00FC00
00FC00
00FC00
00FC00
00FC00
00FC00
00FC00
00FC00
00FC00
ENDCHAR

STARTCHAR ldhorizontal
ENCODING 163
SWIDTH 1131 0
DWIDTH 22 0
BBX 22 20 0 -5
BITMAP
000000
000000
000000
000000
000000
000000
000000
000000
000000
FFFFFC
FFFFFC
000000
000000
000000
000000
000000
000000
000000
000000
000000
ENDCHAR

STARTCHAR ldintegraltp
ENCODING 164
SWIDTH 1131 0
DWIDTH 22 0
BBX 22 20 0 -5
BITMAP
000000
000000
001FF8
007FF8
007E00
00FC00
00FC00
00FC00
00FC00
00FC00
00FC00
00FC00
00FC00
00FC00
00FC00
00FC00
00FC00
00FC00
00FC00
00FC00
ENDCHAR

STARTCHAR ldintegralbt
ENCODING 165
SWIDTH 1131 0
DWIDTH 22 0
BBX 22 20 0 -5
BITMAP
00FC00
00FC00
00FC00
00FC00
00FC00
00FC00
00FC00
00FC00
00FC00
00FC00
00FC00
00FC00
00FC00
00FC00
00FC00
01F800
FFF800
FFE000
000000
000000
ENDCHAR

STARTCHAR ldvertical
ENCODING 166
SWIDTH 1131 0
DWIDTH 22 0
BBX 22 20 0 -5
BITMAP
00FC00
00FC00
00FC00
00FC00
00FC00
00FC00
00FC00
00FC00
00FC00
00FC00
00FC00
00FC00
00FC00
00FC00
00FC00
00FC00
00FC00
00FC00
00FC00
00FC00
ENDCHAR

STARTCHAR ldbracketlfttp
ENCODING 167
SWIDTH 1131 0
DWIDTH 22 0
BBX 22 20 0 -5
BITMAP
000000
000000
00FFC0
00FFC0
00FC00
00FC00
00FC00
00FC00
00FC00
00FC00
00FC00
00FC00
00FC00
00FC00
00FC00
00FC00
00FC00
00FC00
00FC00
00FC00
ENDCHAR

STARTCHAR ldbracketlftbt
ENCODING 168
SWIDTH 1131 0
DWIDTH 22 0
BBX 22 20 0 -5
BITMAP
00FC00
00FC00
00FC00
00FC00
00FC00
00FC00
00FC00
00FC00
00FC00
00FC00
00FC00
00FC00
00FC00
00FC00
00FC00
00FC00
00FFC0
00FFC0
000000
000000
ENDCHAR

STARTCHAR ldbracketrttp
ENCODING 169
SWIDTH 1131 0
DWIDTH 22 0
BBX 22 20 0 -5
BITMAP
000000
000000
0FFC00
0FFC00
00FC00
00FC00
00FC00
00FC00
00FC00
00FC00
00FC00
00FC00
00FC00
00FC00
00FC00
00FC00
00FC00
00FC00
00FC00
00FC00
ENDCHAR

STARTCHAR ldbracketrtbt
ENCODING 170
SWIDTH 1131 0
DWIDTH 22 0
BBX 22 20 0 -5
BITMAP
00FC00
00FC00
00FC00
00FC00
00FC00
00FC00
00FC00
00FC00
00FC00
00FC00
00FC00
00FC00
00FC00
00FC00
00FC00
00FC00
0FFC00
0FFC00
000000
000000
ENDCHAR

STARTCHAR ldbracelfttp
ENCODING 171
SWIDTH 1131 0
DWIDTH 22 0
BBX 22 20 0 -5
BITMAP
000000
000000
001FF0
007FF0
007E00
00FC00
00FC00
00FC00
00FC00
00FC00
00FC00
00FC00
00FC00
00FC00
00FC00
00FC00
00FC00
00FC00
00FC00
00FC00
ENDCHAR

STARTCHAR ldbracelftbt
ENCODING 172
SWIDTH 1131 0
DWIDTH 22 0
BBX 22 20 0 -5
BITMAP
00FC00
00FC00
00FC00
00FC00
00FC00
00FC00
00FC00
00FC00
00FC00
00FC00
00FC00
00FC00
00FC00
00FC00
00FC00
007E00
007FF0
001FF0
000000
000000
ENDCHAR

STARTCHAR ldbracerttp
ENCODING 173
SWIDTH 1131 0
DWIDTH 22 0
BBX 22 20 0 -5
BITMAP
000000
000000
3FE000
3FF800
01F800
00FC00
00FC00
00FC00
00FC00
00FC00
00FC00
00FC00
00FC00
00FC00
00FC00
00FC00
00FC00
00FC00
00FC00
00FC00
ENDCHAR

STARTCHAR ldbracertbt
ENCODING 174
SWIDTH 1131 0
DWIDTH 22 0
BBX 22 20 0 -5
BITMAP
00FC00
00FC00
00FC00
00FC00
00FC00
00FC00
00FC00
00FC00
00FC00
00FC00
00FC00
00FC00
00FC00
00FC00
00FC00
01F800
3FF800
3FE000
000000
000000
ENDCHAR

STARTCHAR ldbracelftmid
ENCODING 175
SWIDTH 1131 0
DWIDTH 22 0
BBX 22 20 0 -5
BITMAP
00FC00
00FC00
00FC00
00FC00
00FC00
00FC00
00FC00
00FC00
01F000
0FC000
0FC000
01F000
00FC00
00FC00
00FC00
00FC00
00FC00
00FC00
00FC00
00FC00
ENDCHAR

STARTCHAR ldbracertmid
ENCODING 176
SWIDTH 1131 0
DWIDTH 22 0
BBX 22 20 0 -5
BITMAP
00FC00
00FC00
00FC00
00FC00
00FC00
00FC00
00FC00
00FC00
003E00
000FC0
000FC0
003E00
00FC00
00FC00
00FC00
00FC00
00FC00
00FC00
00FC00
00FC00
ENDCHAR

STARTCHAR ldsigmalfttp
ENCODING 177
SWIDTH 1131 0
DWIDTH 22 0
BBX 22 20 0 -5
BITMAP
000000
000000
000000
000000
000000
000000
000000
000000
000000
00FFFC
00FFFC
007C00
003E00
001F00
000F80
0007E0
0001F0
0000F8
00007C
00003C
ENDCHAR

STARTCHAR ldsigmalftbt
ENCODING 178
SWIDTH 1131 0
DWIDTH 22 0
BBX 22 20 0 -5
BITMAP
00003C
00007C
0000F8
0001F0
0007E0
000F80
001F00
003E00
007C00
00FFFC
00FFFC
000000
000000
000000
000000
000000
000000
000000
000000
000000
ENDCHAR

STARTCHAR ldbackslash
ENCODING 179
SWIDTH 1131 0
DWIDTH 22 0
BBX 22 20 0 -5
BITMAP
800000
C00000
E00000
F00000
780000
3E0000
1F0000
0F8000
03C000
01E000
00F000
007800
003C00
001E00
000F80
0007C0
0001E0
0000F0
000078
00003C
ENDCHAR

STARTCHAR ldslash
ENCODING 180
SWIDTH 1131 0
DWIDTH 22 0
BBX 22 20 0 -5
BITMAP
000004
00000C
00001C
00003C
000078
0001F0
0003E0
0007C0
000F00
001E00
003C00
007800
00F000
01E000
07C000
0F8000
1E0000
3C0000
780000
F00000
ENDCHAR

STARTCHAR ldsigmarttp
ENCODING 181
SWIDTH 1131 0
DWIDTH 22 0
BBX 22 20 0 -5
BITMAP
000000
000000
000000
000000
000000
000000
000000
000000
000000
FFFFFC
FFFFFC
0000FC
0000FC
0000FC
0000FC
000000
000000
000000
000000
000000
ENDCHAR

STARTCHAR ldsigmartbt
ENCODING 182
SWIDTH 1131 0
DWIDTH 22 0
BBX 22 20 0 -5
BITMAP
000000
000000
000000
000000
000000
0000FC
0000FC
0000FC
0000FC
FFFFFC
FFFFFC
000000
000000
000000
000000
000000
000000
000000
000000
000000
ENDCHAR

STARTCHAR ldsigmamid
ENCODING 183
SWIDTH 1131 0
DWIDTH 22 0
BBX 22 20 0 -5
BITMAP
800000
C00000
E00000
F00000
780000
3E0000
1F0000
0F8000
03C000
01E000
00F800
007800
00F000
01E000
07C000
0F8000
1E0000
3C0000
780000
F00000
ENDCHAR

STARTCHAR lessequal
ENCODING 188
SWIDTH 1131 0
DWIDTH 22 0
BBX 22 20 0 -5
BITMAP
000000
000000
000000
000000
000000
0001F8
007FF8
1FFE00
7F8000
1FFE00
007FF8
0001F8
000000
7FFFF8
7FFFF8
000000
000000
000000
000000
000000
ENDCHAR

STARTCHAR notequal
ENCODING 189
SWIDTH 1131 0
DWIDTH 22 0
BBX 22 20 0 -5
BITMAP
000000
000000
000000
000000
000000
000380
000700
3FFFF0
3FFFF0
003800
007000
3FFFF0
3FFFF0
038000
070000
000000
000000
000000
000000
000000
ENDCHAR

STARTCHAR greaterequal
ENCODING 190
SWIDTH 1131 0
DWIDTH 22 0
BBX 22 20 0 -5
BITMAP
000000
000000
000000
000000
000000
7E0000
7FF800
01FFE0
0007F8
01FFE0
7FF800
7E0000
000000
7FFFF8
7FFFF8
000000
000000
000000
000000
000000
ENDCHAR

STARTCHAR integral
ENCODING 191
SWIDTH 1131 0
DWIDTH 22 0
BBX 22 20 0 -5
BITMAP
000000
001FF0
007FF8
007C38
00FC00
00FC00
00FC00
00FC00
00FC00
00FC00
00FC00
00FC00
00FC00
00FC00
00FC00
00FC00
70F800
7FF800
3FE000
000000
ENDCHAR

STARTCHAR therefore
ENCODING 192
SWIDTH 1131 0
DWIDTH 22 0
BBX 22 20 0 -5
BITMAP
000000
000000
000000
000000
000000
007800
01FE00
01FE00
007800
000000
000000
1E01E0
7F87F8
7F87F8
1E01E0
000000
000000
000000
000000
000000
ENDCHAR

STARTCHAR proportional
ENCODING 193
SWIDTH 1131 0
DWIDTH 22 0
BBX 22 20 0 -5
BITMAP
000000
000000
000000
000000
000000
000000
0FE1F8
3FFFF8
7C7F80
781E00
781E00
7C7F80
3FFFF8
0FE1F8
000000
000000
000000
000000
000000
000000
ENDCHAR

STARTCHAR infinity
ENCODING 194
SWIDTH 1131 0
DWIDTH 22 0
BBX 22 20 0 -5
BITMAP
000000
000000
000000
000000
000000
000000
1FCFE0
7FFFF8
FCFCFC
F0303C
F0303C
FCFCFC
7FFFF8
1FCFE0
000000
000000
000000
000000
000000
000000
ENDCHAR

STARTCHAR divide
ENCODING 195
SWIDTH 1131 0
DWIDTH 22 0
BBX 22 20 0 -5
BITMAP
000000
000000
000000
000000
000000
007800
01FE00
007800
000000
7FFFF8
7FFFF8
000000
007800
01FE00
007800
000000
000000
000000
000000
000000
ENDCHAR

STARTCHAR Delta
ENCODING 196
SWIDTH 1131 0
DWIDTH 22 0
BBX 22 20 0 -5
BITMAP
000000
000000
000000
000000
007800
00FC00
01FE00
03FF00
07CF80
0F87C0
1F03E0
3E01F0
7C00F8
7FFFF8
7FFFF8
000000
000000
000000
000000
000000
ENDCHAR

STARTCHAR gradient
ENCODING 197
SWIDTH 1131 0
DWIDTH 22 0
BBX 22 20 0 -5
BITMAP
000000
000000
000000
000000
7FFFF8
7FFFF8
7C00F8
3E01F0
1F03E0
0F87C0
07CF80
03FF00
01FE00
00FC00
007800
000000
000000
000000
000000
000000
ENDCHAR

STARTCHAR Phi
ENCODING 198
SWIDTH 1131 0
DWIDTH 22 0
BBX 22 20 0 -5
BITMAP
000000
000000
000000
000000
03FF00
00FC00
0FFFC0
1FFFE0
3CFCF0
3CFCF0
3CFCF0
1FFFE0
0FFFC0
00FC00
03FF00
000000
000000
000000
000000
000000
ENDCHAR

STARTCHAR Gamma
ENCODING 199
SWIDTH 1131 0
DWIDTH 22 0
BBX 22 20 0 -5
BITMAP
000000
000000
000000
000000
3FFFF0
3FFFF0
0FC3F0
0FC3F0
0FC3F0
0FC000
0FC000
0FC000
0FC000
3FFC00
3FFC00
000000
000000
000000
000000
000000
ENDCHAR

STARTCHAR similar
ENCODING 200
SWIDTH 1131 0
DWIDTH 22 0
BBX 22 20 0 -5
BITMAP
000000
000000
000000
000000
000000
000000
000000
000000
07E0E0
0FF8E0
1C3FC0
1C0F80
000000
000000
000000
000000
000000
000000
000000
000000
ENDCHAR

STARTCHAR approxequal
ENCODING 201
SWIDTH 1131 0
DWIDTH 22 0
BBX 22 20 0 -5
BITMAP
000000
000000
000000
000000
000000
000000
07E0E0
0FF8E0
1C3FC0
1C0F80
000000
000000
1FFFE0
1FFFE0
000000
000000
000000
000000
000000
000000
ENDCHAR

STARTCHAR Theta
ENCODING 202
SWIDTH 1131 0
DWIDTH 22 0
BBX 22 20 0 -5
BITMAP
000000
000000
000000
000000
03FF00
1FFFE0
3F03F0
7E01F8
7E79F8
7E79F8
7E01F8
7E01F8
3F03F0
1FFFE0
03FF00
000000
000000
000000
000000
000000
ENDCHAR

STARTCHAR multiply
ENCODING 203
SWIDTH 1131 0
DWIDTH 22 0
BBX 22 20 0 -5
BITMAP
000000
000000
000000
000000
000000
000000
060180
1F87E0
07FF80
01FE00
01FE00
07FF80
1F87E0
060180
000000
000000
000000
000000
000000
000000
ENDCHAR

STARTCHAR Lambda
ENCODING 204
SWIDTH 1131 0
DWIDTH 22 0
BBX 22 20 0 -5
BITMAP
000000
000000
000000
000000
007800
00FC00
01FE00
03FF00
07CF80
0F87C0
1F03E0
3E01F0
7C00F8
7F87F8
7F87F8
000000
000000
000000
000000
000000
ENDCHAR

STARTCHAR arrowdblboth
ENCODING 205
SWIDTH 1131 0
DWIDTH 22 0
BBX 22 20 0 -5
BITMAP
000000
000000
000000
000000
000000
030300
0F03C0
3FFFF0
7FFFF8
FC00FC
7FFFF8
3FFFF0
0F03C0
030300
000000
000000
000000
000000
000000
000000
ENDCHAR

STARTCHAR arrowdblright
ENCODING 206
SWIDTH 1131 0
DWIDTH 22 0
BBX 22 20 0 -5
BITMAP
000000
000000
000000
000000
000000
003F00
000FC0
FFFFF0
FFFFF8
0001FC
FFFFF8
FFFFF0
000FC0
003F00
000000
000000
000000
000000
000000
000000
ENDCHAR

STARTCHAR equivalence
ENCODING 207
SWIDTH 1131 0
DWIDTH 22 0
BBX 22 20 0 -5
BITMAP
000000
000000
000000
000000
000000
000000
3FFFF0
3FFFF0
000000
3FFFF0
3FFFF0
000000
3FFFF0
3FFFF0
000000
000000
000000
000000
000000
000000
ENDCHAR

STARTCHAR Pi
ENCODING 208
SWIDTH 1131 0
DWIDTH 22 0
BBX 22 20 0 -5
BITMAP
000000
000000
000000
000000
7FFFF8
7FFFF8
1F87E0
1F87E0
1F87E0
1F87E0
1F87E0
1F87E0
1F87E0
7F87F8
7F87F8
000000
000000
000000
000000
000000
ENDCHAR

STARTCHAR Psi
ENCODING 209
SWIDTH 1131 0
DWIDTH 22 0
BBX 22 20 0 -5
BITMAP
000000
000000
000000
000000
03FF00
00FC00
3CFCF0
3CFCF0
3CFCF0
3CFCF0
3FFFF0
0FFFC0
00FC00
00FC00
03FF00
000000
000000
000000
000000
000000
ENDCHAR

STARTCHAR Sigma
ENCODING 211
SWIDTH 1131 0
DWIDTH 22 0
BBX 22 20 0 -5
BITMAP
000000
000000
000000
000000
7FFFF8
7FFFF8
1F8078
07E078
01F800
007E00
01F800
07E078
1F8078
7FFFF8
7FFFF8
000000
000000
000000
000000
000000
ENDCHAR

STARTCHAR radical
ENCODING 214
SWIDTH 1131 0
DWIDTH 22 0
BBX 22 20 0 -5
BITMAP
000000
00001C
00003C
00007C
0000F8
0001F0
FC03E0
FC03C0
3E0780
1E0F80
1F1F00
0F3E00
07FC00
07F800
03F000
03F000
01E000
000000
000000
000000
ENDCHAR

STARTCHAR Omega
ENCODING 215
SWIDTH 1131 0
DWIDTH 22 0
BBX 22 20 0 -5
BITMAP
000000
000000
000000
000000
03FF00
0FFFC0
1F87E0
3F03F0
3F03F0
3F03F0
1F03E0
0F87C0
03CF00
3FCFF0
3FCFF0
000000
000000
000000
000000
000000
ENDCHAR

STARTCHAR Xi
ENCODING 216
SWIDTH 1131 0
DWIDTH 22 0
BBX 22 20 0 -5
BITMAP
000000
000000
000000
000000
3FFFF0
3FFFF0
3C00F0
000000
0F03C0
0FFFC0
0FFFC0
000000
3C00F0
3FFFF0
3FFFF0
000000
000000
000000
000000
000000
ENDCHAR

STARTCHAR Upsilon1
ENCODING 217
SWIDTH 1131 0
DWIDTH 22 0
BBX 22 20 0 -5
BITMAP
000000
000000
000000
000000
3F03F0
3F83F0
0F87C0
07CF80
03CF00
01FE00
01FE00
00FC00
00FC00
0FFFC0
0FFFC0
000000
000000
000000
000000
000000
ENDCHAR

STARTCHAR propersubset
ENCODING 218
SWIDTH 1131 0
DWIDTH 22 0
BBX 22 20 0 -5
BITMAP
000000
000000
000000
000000
03FFF0
0FFFF0
1F8000
3F0000
3F0000
3F0000
3F0000
3F0000
1F8000
0FFFF0
03FFF0
000000
000000
000000
000000
000000
ENDCHAR

STARTCHAR propersuperset
ENCODING 219
SWIDTH 1131 0
DWIDTH 22 0
BBX 22 20 0 -5
BITMAP
000000
000000
000000
000000
3FFF00
3FFFC0
0007E0
0003F0
0003F0
0003F0
0003F0
0003F0
0007E0
3FFFC0
3FFF00
000000
000000
000000
000000
000000
ENDCHAR

STARTCHAR intersection
ENCODING 220
SWIDTH 1131 0
DWIDTH 22 0
BBX 22 20 0 -5
BITMAP
000000
000000
000000
000000
07FF80
1FFFE0
3F87F0
7E01F8
7E01F8
7E01F8
7E01F8
7E01F8
7E01F8
7E01F8
7E01F8
000000
000000
000000
000000
000000
ENDCHAR

STARTCHAR union
ENCODING 221
SWIDTH 1131 0
DWIDTH 22 0
BBX 22 20 0 -5
BITMAP
000000
000000
000000
000000
7E01F8
7E01F8
7E01F8
7E01F8
7E01F8
7E01F8
7E01F8
7E01F8
3F87F0
1FFFE0
07FF80
000000
000000
000000
000000
000000
ENDCHAR

STARTCHAR logicaland
ENCODING 222
SWIDTH 1131 0
DWIDTH 22 0
BBX 22 20 0 -5
BITMAP
000000
000000
000000
000000
00FC00
01FE00
03FF00
03FF00
07CF80
0FCFC0
0F87C0
1F03E0
3F03F0
3E01F0
FE01FC
000000
000000
000000
000000
000000
ENDCHAR

STARTCHAR logicalor
ENCODING 223
SWIDTH 1131 0
DWIDTH 22 0
BBX 22 20 0 -5
BITMAP
000000
000000
000000
000000
FE01FC
3E01F0
3F03F0
1F03E0
0F87C0
0FCFC0
07CF80
03FF00
03FF00
01FE00
00FC00
000000
000000
000000
000000
000000
ENDCHAR

STARTCHAR logicalnot
ENCODING 224
SWIDTH 1131 0
DWIDTH 22 0
BBX 22 20 0 -5
BITMAP
000000
000000
000000
000000
000000
000000
000000
3FFFF0
3FFFF0
0003F0
0003F0
0003F0
0003F0
000000
000000
000000
000000
000000
000000
000000
ENDCHAR

STARTCHAR alpha
ENCODING 225
SWIDTH 1131 0
DWIDTH 22 0
BBX 22 20 0 -5
BITMAP
000000
000000
000000
000000
000000
000000
03F878
0FFFF8
3F0FE0
3E07C0
7E0780
7E0780
3F1F80
3FFFF8
0FE1F8
000000
000000
000000
000000
000000
ENDCHAR

STARTCHAR beta
ENCODING 226
SWIDTH 1131 0
DWIDTH 22 0
BBX 22 20 0 -5
BITMAP
000000
000000
000000
00FFE0
03FFF8
07E1F8
0780F8
0F81F0
0F1FE0
1F1FF0
1E01F8
3E01F8
3F01F8
3FFFF0
78FFC0
780000
F00000
F00000
F00000
000000
ENDCHAR

STARTCHAR chi
ENCODING 227
SWIDTH 1131 0
DWIDTH 22 0
BBX 22 20 0 -5
BITMAP
000000
000000
000000
000000
000000
000000
1F8018
1F8078
07E1F8
07E7E0
01FF80
01FE00
007800
01FE00
07FE00
1F9F80
7E1F80
7807E0
6007E0
000000
ENDCHAR

STARTCHAR delta
ENCODING 228
SWIDTH 1131 0
DWIDTH 22 0
BBX 22 20 0 -5
BITMAP
000000
000000
000000
007FF8
01FFF8
01F800
007E00
07FF80
1FEFE0
3F03F0
7E01F8
7E01F8
3F03F0
3FFFF0
0FFFC0
000000
000000
000000
000000
000000
ENDCHAR

STARTCHAR epsilon
ENCODING 229
SWIDTH 1131 0
DWIDTH 22 0
BBX 22 20 0 -5
BITMAP
000000
000000
000000
000000
000000
000000
01FFC0
0FFFF0
0FC000
3FFF00
3FFF00
3F0000
3F0000
1FFFC0
07FF00
000000
000000
000000
000000
000000
ENDCHAR

STARTCHAR phi
ENCODING 230
SWIDTH 1131 0
DWIDTH 22 0
BBX 22 20 0 -5
BITMAP
000000
000000
000000
001E00
001E00
001C00
03FFC0
0FFFE0
1F39F0
3C38F0
3C78F0
3C70F0
3E73E0
1FFFC0
0FFF00
01E000
01E000
01C000
03C000
000000
ENDCHAR

STARTCHAR gamma
ENCODING 231
SWIDTH 1131 0
DWIDTH 22 0
BBX 22 20 0 -5
BITMAP
000000
000000
000000
000000
000000
000000
7E00F8
7E01F8
1F03E0
0F87C0
07CF80
03FF00
01FE00
00FC00
00F800
01F000
03E000
07C000
0F8000
000000
ENDCHAR

STARTCHAR eta
ENCODING 232
SWIDTH 1131 0
DWIDTH 22 0
BBX 22 20 0 -5
BITMAP
000000
000000
000000
000000
000000
000000
7F8FF0
7FFFF8
1FF1F8
1F81F8
1F01F8
3F03F0
3E03F0
7E07E0
7E07E0
0007C0
000FC0
000F80
000F80
000000
ENDCHAR

STARTCHAR iota
ENCODING 233
SWIDTH 1131 0
DWIDTH 22 0
BBX 22 20 0 -5
BITMAP
000000
000000
000000
000000
000000
000000
0FFC00
0FFC00
00F800
00F800
01F000
01F000
03F1C0
03FFC0
01FF00
000000
000000
000000
000000
000000
ENDCHAR

STARTCHAR theta
ENCODING 234
SWIDTH 1131 0
DWIDTH 22 0
BBX 22 20 0 -5
BITMAP
000000
000000
000000
00FFC0
07FFF0
0FC1F0
1F00F8
3E00F8
3FFFF8
7FFFF0
7C01F0
7C03E0
3E0FC0
3FFF80
0FFC00
000000
000000
000000
000000
000000
ENDCHAR

STARTCHAR kappa
ENCODING 235
SWIDTH 1131 0
DWIDTH 22 0
BBX 22 20 0 -5
BITMAP
000000
000000
000000
000000
000000
000000
3FC0F0
3FC3F0
0F8FC0
0FFF00
0FFC00
1FFE00
1F1F00
3E0FC0
3E03F0
000000
000000
000000
000000
000000
ENDCHAR

STARTCHAR lambda
ENCODING 236
SWIDTH 1131 0
DWIDTH 22 0
BBX 22 20 0 -5
BITMAP
000000
000000
000000
0FF000
0FF800
00F800
007C00
00FC00
01FE00
03FF00
07CF00
0F8F80
1F07C0
3E03E0
FC03FC
000000
000000
000000
000000
000000
ENDCHAR

STARTCHAR nu
ENCODING 238
SWIDTH 1131 0
DWIDTH 22 0
BBX 22 20 0 -5
BITMAP
000000
000000
000000
000000
000000
000000
7FE1F8
7FE1F8
07E1F8
07E1F8
07E3E0
07E7E0
07FF80
07FE00
07F800
000000
000000
000000
000000
000000
ENDCHAR

STARTCHAR partialdiff
ENCODING 239
SWIDTH 1131 0
DWIDTH 22 0
BBX 22 20 0 -5
BITMAP
000000
000000
000000
07FE00
07FF80
0007C0
0007E0
03FFE0
0FFFE0
1F87E0
1F87E0
1F87E0
1F87C0
0FFF80
03FE00
000000
000000
000000
000000
000000
ENDCHAR

STARTCHAR pi
ENCODING 240
SWIDTH 1131 0
DWIDTH 22 0
BBX 22 20 0 -5
BITMAP
000000
000000
000000
000000
000000
000000
FFFFF8
FFFFF8
3E07C0
3E0F80
7C0F80
7C0F00
7C1F00
F81FC0
F81FC0
000000
000000
000000
000000
000000
ENDCHAR

STARTCHAR psi
ENCODING 241
SWIDTH 1131 0
DWIDTH 22 0
BBX 22 20 0 -5
BITMAP
000000
000000
000000
003C00
003C00
003C00
1E3CF0
1E3CF0
1E78F0
3C78F0
3C78F0
3C78E0
3C79E0
3FFFC0
0FFF80
01E000
01E000
01E000
01E000
000000
ENDCHAR

STARTCHAR rho
ENCODING 242
SWIDTH 1131 0
DWIDTH 22 0
BBX 22 20 0 -5
BITMAP
000000
000000
000000
000000
000000
000000
07FF80
1FFFE0
3F03F0
7E01F8
7E01F8
7E01F8
7F03F0
7FFFE0
FFFF80
FC0000
FC0000
FC0000
FC0000
000000
ENDCHAR

STARTCHAR sigma
ENCODING 243
SWIDTH 1131 0
DWIDTH 22 0
BBX 22 20 0 -5
BITMAP
000000
000000
000000
000000
000000
000000
01FFF8
0FFFF8
3FC3E0
3F01F0
7E01F8
7E03F0
3F0FF0
1FFFC0
07FF00
000000
000000
000000
000000
000000
ENDCHAR

STARTCHAR tau
ENCODING 244
SWIDTH 1131 0
DWIDTH 22 0
BBX 22 20 0 -5
BITMAP
000000
000000
000000
000000
000000
000000
3FFFF0
3FFFF0
00F800
01F000
01F000
03E000
03E070
03FFF0
01FFC0
000000
000000
000000
000000
000000
ENDCHAR

STARTCHAR florin
ENCODING 246
SWIDTH 1131 0
DWIDTH 22 0
BBX 22 20 0 -5
BITMAP
000000
000000
000000
000000
0007F8
001FF8
001F00
003E00
07FFE0
07FFE0
007C00
007800
00F800
00F000
01F000
03E000
7FE000
7F8000
000000
000000
ENDCHAR

STARTCHAR omega
ENCODING 247
SWIDTH 1131 0
DWIDTH 22 0
BBX 22 20 0 -5
BITMAP
000000
000000
000000
000000
000000
000000
3F01F8
3F01F8
3F01F8
7E79F8
7E79F8
7E79F8
7E79F0
7FFFE0
1F9F80
000000
000000
000000
000000
000000
ENDCHAR

STARTCHAR xi
ENCODING 248
SWIDTH 1131 0
DWIDTH 22 0
BBX 22 20 0 -5
BITMAP
000000
000000
000000
0FFFF0
0FFFF0
01F800
03F000
03F000
01FF00
0FFF00
1F8000
3F0000
3F8000
1FFF80
0FFFC0
000FC0
000F80
001F00
003C00
000000
ENDCHAR

STARTCHAR upsilon
ENCODING 249
SWIDTH 1131 0
DWIDTH 22 0
BBX 22 20 0 -5
BITMAP
000000
000000
000000
000000
000000
000000
0FC3F0
0F83F0
1F83F0
1F03F0
3F07E0
3F07E0
3F0FC0
1FFF00
07FC00
000000
000000
000000
000000
000000
ENDCHAR

STARTCHAR zeta
ENCODING 250
SWIDTH 1131 0
DWIDTH 22 0
BBX 22 20 0 -5
BITMAP
000000
000000
000000
0FFFF0
0FFFF0
003F00
00FC00
03F000
0FC000
1F8000
3F0000
3F0000
3F8000
1FFFC0
07FFF0
0003F0
0003E0
000FC0
000F00
000000
ENDCHAR

STARTCHAR arrowleft
ENCODING 251
SWIDTH 1131 0
DWIDTH 22 0
BBX 22 20 0 -5
BITMAP
000000
000000
000000
000000
000000
000000
03C000
0FC000
3F0000
FFFFFC
FFFFFC
3F0000
0FC000
03C000
000000
000000
000000
000000
000000
000000
ENDCHAR

STARTCHAR arrowup
ENCODING 252
SWIDTH 1131 0
DWIDTH 22 0
BBX 22 20 0 -5
BITMAP
000000
000000
003000
00FC00
03FF00
07FF80
1FFFE0
3CFCF0
38FC70
00FC00
00FC00
00FC00
00FC00
00FC00
00FC00
00FC00
00FC00
00FC00
00FC00
000000
ENDCHAR

STARTCHAR arrowright
ENCODING 253
SWIDTH 1131 0
DWIDTH 22 0
BBX 22 20 0 -5
BITMAP
000000
000000
000000
000000
000000
000000
000F00
000FC0
0003F0
FFFFFC
FFFFFC
0003F0
000FC0
000F00
000000
000000
000000
000000
000000
000000
ENDCHAR

STARTCHAR arrowdown
ENCODING 254
SWIDTH 1131 0
DWIDTH 22 0
BBX 22 20 0 -5
BITMAP
000000
000000
00FC00
00FC00
00FC00
00FC00
00FC00
00FC00
00FC00
00FC00
00FC00
00FC00
38FC70
3CFCF0
1FFFE0
07FF80
03FF00
00FC00
003000
000000
ENDCHAR
ENDFONT
